<?xml version="1.0" encoding="utf-8"?>
<!-- Generator: Adobe Illustrator 26.1.0, SVG Export Plug-In . SVG Version: 6.00 Build 0)  -->
<svg version="1.1" id="Livello_1" xmlns="http://www.w3.org/2000/svg" xmlns:xlink="http://www.w3.org/1999/xlink" x="0px" y="0px"
	 viewBox="0 0 600 600" style="enable-background:new 0 0 600 600;" xml:space="preserve">
<style type="text/css">
	.st0{display:none;}
	
		.st1{fill:url(#SVGID_1_);stroke:url(#SVGID_00000081622679758252300420000001889077475769196703_);stroke-width:0.848;stroke-linecap:round;stroke-linejoin:round;}
	
		.st2{fill:url(#SVGID_00000174597741576050915830000005909427856307551394_);stroke:url(#SVGID_00000038378667546423880300000002878356184241926284_);stroke-width:0.848;stroke-linecap:round;stroke-linejoin:round;}
	.st3{fill:url(#SVGID_00000015352888972747527710000013169039328162527894_);}
	.st4{fill:url(#SVGID_00000004508238497669603830000000379088347315639479_);}
	.st5{fill:url(#SVGID_00000116936154032717088960000003893072162293568167_);}
	.st6{fill:url(#SVGID_00000001636021504519782930000003527564250354425764_);}
	.st7{opacity:0.6548;fill:url(#SVGID_00000168834393823531908530000011757701047823173780_);enable-background:new    ;}
	.st8{opacity:0.9682;fill:url(#SVGID_00000036236981340548946350000002223530587347358372_);enable-background:new    ;}
	.st9{opacity:0.4246;fill:url(#SVGID_00000070076602557166263220000007198273964262846851_);enable-background:new    ;}
	.st10{opacity:0.5297;fill:url(#SVGID_00000120533171305007150660000001892170002719759775_);enable-background:new    ;}
	.st11{opacity:0.5297;fill:url(#SVGID_00000040540568845031795910000012937332169309111682_);enable-background:new    ;}
	.st12{opacity:0.2738;filter:url(#n);enable-background:new    ;}
	.st13{fill:#FFFFFF;}
</style>
<filter  color-interpolation-filters="sRGB" height="1.2749" id="n" width="1.2511" x="-.12557" y="-.13747">
	<feGaussianBlur  stdDeviation="7.5164577"></feGaussianBlur>
</filter>
<g transform="translate(-80.812 -94.768)">
	<g transform="translate(10,-8)">
		<rect x="80.8" y="112.9" class="st0" width="581.8" height="581.8"/>
		<g transform="translate(378.05 -124)">
			
				<radialGradient id="SVGID_1_" cx="172.082" cy="1008.488" r="220.13" gradientTransform="matrix(1 0 0 1 -185.462 -235.168)" gradientUnits="userSpaceOnUse">
				<stop  offset="0" style="stop-color:#BCBABA"/>
				<stop  offset="0.4244" style="stop-color:#B8BAB8"/>
				<stop  offset="0.6836" style="stop-color:#656567"/>
				<stop  offset="1" style="stop-color:#B2B2B2"/>
			</radialGradient>
			
				<radialGradient id="SVGID_00000084516110642871708810000006214422856674466738_" cx="172.082" cy="1008.488" r="220.13" gradientTransform="matrix(1 0 0 1 -185.462 -235.168)" gradientUnits="userSpaceOnUse">
				<stop  offset="0" style="stop-color:#BCBABA"/>
				<stop  offset="0.5299" style="stop-color:#B8BAB8"/>
				<stop  offset="0.8075" style="stop-color:#656567"/>
				<stop  offset="1" style="stop-color:#B2B2B2"/>
			</radialGradient>
			
				<path style="fill:url(#SVGID_1_);stroke:url(#SVGID_00000084516110642871708810000006214422856674466738_);stroke-width:0.848;stroke-linecap:round;stroke-linejoin:round;" d="
				M213.4,527.8c0-121.3-98.4-219.7-219.7-219.7c-121.3,0-219.7,98.4-219.7,219.7c0,121.3,98.4,219.7,219.7,219.7
				C115,747.6,213.4,649.2,213.4,527.8z"/>
			
				<radialGradient id="SVGID_00000132799317409002352340000001728290537145003681_" cx="169.052" cy="530.488" r="220.13" gradientTransform="matrix(1 0 0 -1 -185.462 812.858)" gradientUnits="userSpaceOnUse">
				<stop  offset="0.7162" style="stop-color:#676563"/>
				<stop  offset="1" style="stop-color:#000000"/>
			</radialGradient>
			
				<radialGradient id="SVGID_00000009559067600096835550000003694988762561415052_" cx="169.052" cy="530.488" r="220.13" gradientTransform="matrix(1 0 0 -1 -185.462 812.858)" gradientUnits="userSpaceOnUse">
				<stop  offset="0" style="stop-color:#BCBABA"/>
				<stop  offset="0.4244" style="stop-color:#B8BAB8"/>
				<stop  offset="0.9268" style="stop-color:#656567"/>
				<stop  offset="1" style="stop-color:#B2B2B2"/>
			</radialGradient>
			
				<path style="fill:url(#SVGID_00000132799317409002352340000001728290537145003681_);stroke:url(#SVGID_00000009559067600096835550000003694988762561415052_);stroke-width:0.848;stroke-linecap:round;stroke-linejoin:round;" d="
				M213.4,527.8c0,121.3-98.4,219.7-219.7,219.7c-121.3,0-219.7-98.4-219.7-219.7c0-121.3,98.4-219.7,219.7-219.7
				C115,308.1,213.4,406.5,213.4,527.8z"/>
			
				<radialGradient id="SVGID_00000072268632561809773570000012516162132078071220_" cx="215.8503" cy="-3.4949" r="219.71" gradientTransform="matrix(0.9356 0 0 -0.9356 -216.3487 779.1258)" gradientUnits="userSpaceOnUse">
				<stop  offset="0" style="stop-color:#DFDFE1"/>
				<stop  offset="0.5299" style="stop-color:#D4D2D4"/>
				<stop  offset="0.8075" style="stop-color:#656567"/>
				<stop  offset="1" style="stop-color:#D4D2D0"/>
			</radialGradient>
			<path style="fill:url(#SVGID_00000072268632561809773570000012516162132078071220_);" d="M199.3,527.8
				c0,113.5-92,205.6-205.6,205.6c-113.5,0-205.6-92-205.6-205.6c0-113.5,92-205.6,205.6-205.6C107.2,322.3,199.3,414.3,199.3,527.8
				z"/>
			<path d="M175.5,527.8c0,100.4-81.4,181.8-181.8,181.8c-100.4,0-181.8-81.4-181.8-181.8c0-100.4,81.4-181.8,181.8-181.8
				C94.1,346,175.5,427.4,175.5,527.8z"/>
			
				<radialGradient id="SVGID_00000034798502962444432810000003476840091546053554_" cx="-677.6905" cy="435.2865" r="73.7352" gradientTransform="matrix(2.1165 -6.185069e-02 -6.815821e-02 -2.294 1457.691 1484.4774)" gradientUnits="userSpaceOnUse">
				<stop  offset="0" style="stop-color:#FF0D1D"/>
				<stop  offset="0.4722" style="stop-color:#D40000;stop-opacity:0.8365"/>
				<stop  offset="0.6758" style="stop-color:#D40000;stop-opacity:0.5975"/>
				<stop  offset="1" style="stop-color:#D40000;stop-opacity:5.660400e-02"/>
			</radialGradient>
			<path style="fill:url(#SVGID_00000034798502962444432810000003476840091546053554_);" d="M144.7,527.8
				c0,85.1-67.6,154.1-151,154.1s-151-69-151-154.1s67.6-154.1,151-154.1c82.7,0,150,67.8,151,152.2"/>
			
				<radialGradient id="SVGID_00000075120576950300874790000014887568716248983185_" cx="-384.0856" cy="785.4252" r="78.7921" gradientTransform="matrix(1.2372 0 0 -1.2213 468.8787 1487.1113)" gradientUnits="userSpaceOnUse">
				<stop  offset="0" style="stop-color:#FFA74D;stop-opacity:0.7484"/>
				<stop  offset="0.2821" style="stop-color:#FF270F"/>
			</radialGradient>
			<path style="fill:url(#SVGID_00000075120576950300874790000014887568716248983185_);" d="M91.2,527.8c0,53.1-43.6,96.2-97.5,96.2
				s-97.5-43.1-97.5-96.2c0-53.1,43.6-96.2,97.5-96.2c53.4,0,96.8,42.4,97.5,95.1"/>
			
				<radialGradient id="SVGID_00000162330545793467587380000017581482035628094882_" cx="-213.29" cy="718.878" r="13.132" gradientTransform="matrix(1 0 0 -1 206.978 1246.718)" gradientUnits="userSpaceOnUse">
				<stop  offset="0" style="stop-color:#FFFF00"/>
				<stop  offset="1" style="stop-color:#000000"/>
			</radialGradient>
			<path style="fill:url(#SVGID_00000162330545793467587380000017581482035628094882_);" d="M6.8,527.8c0,7.3-5.9,13.1-13.1,13.1
				s-13.1-5.9-13.1-13.1c0-7.3,5.9-13.1,13.1-13.1c7.2,0,13,5.8,13.1,13"/>
			
				<radialGradient id="SVGID_00000036229547906352256330000001730859039420307085_" cx="-1239.3619" cy="1489.347" r="154.05" gradientTransform="matrix(-1.4236 2.373400e-02 1.478100e-02 0.5874 -1794.4291 -419.9735)" gradientUnits="userSpaceOnUse">
				<stop  offset="0" style="stop-color:#E4E2E2"/>
				<stop  offset="1" style="stop-color:#DDD9DC;stop-opacity:0.1635"/>
			</radialGradient>
			
				<path style="opacity:0.6548;fill:url(#SVGID_00000036229547906352256330000001730859039420307085_);enable-background:new    ;" d="
				M-8.1,419c-14,0-27.3,2.8-38.9,7.8c4.3,2.7,8.5,5.5,12.5,8.5c8.3-2.2,17.2-3.5,26.4-3.5c8,0,15.8,0.9,23.1,2.6
				c4.3-3.1,8.8-6,13.5-8.7C17.5,421.4,5.1,419-8.1,419L-8.1,419z M52,439.8c-3.9,1.5-7.6,3.1-11.3,4.9c7.5,4.4,14.1,9.8,19.4,16
				c2.5-0.8,5-1.5,7.6-2.2C63.8,451.6,58.4,445.2,52,439.8L52,439.8z M-69,440.6c-6.8,5.9-12.3,12.9-16.2,20.5
				c2.3,0.7,4.5,1.5,6.7,2.3c5.4-6.9,12.2-12.9,20.1-17.8C-61.8,443.8-65.3,442.1-69,440.6L-69,440.6z M75.3,487.3
				c-0.4,0.1-0.9,0.2-1.3,0.3c0.4,1.8,0.7,3.7,0.9,5.6C75.1,491.3,75.2,489.3,75.3,487.3L75.3,487.3z M-91.3,489.8
				c0.1,1.2,0.2,2.3,0.3,3.4c0.1-1.1,0.3-2.2,0.5-3.2C-90.8,489.9-91,489.9-91.3,489.8z"/>
			
				<radialGradient id="SVGID_00000105418694847024521710000018252655686679012016_" cx="-1039.4043" cy="1262.4977" r="154.05" gradientTransform="matrix(-2.5288 5.133500e-02 2.625600e-02 1.2705 -2667.918 -1164.6674)" gradientUnits="userSpaceOnUse">
				<stop  offset="0" style="stop-color:#E4E2E2"/>
				<stop  offset="1" style="stop-color:#DDD9DC;stop-opacity:0.1635"/>
			</radialGradient>
			
				<path style="opacity:0.9682;fill:url(#SVGID_00000105418694847024521710000018252655686679012016_);enable-background:new    ;" d="
				M-6.3,372c-24.9,0-48.4,6.1-69,16.9c7.7,5.8,15.1,12,22.2,18.5c14.7-4.9,30.5-7.5,46.8-7.5c14.2,0,28,2,41.1,5.7
				c7.6-6.7,15.6-12.9,24-18.7C39.1,377.4,17,372-6.3,372L-6.3,372z M100.4,417.1c-6.9,3.3-13.5,6.8-20.1,10.6
				c33.6,24.1,56.6,61.8,60.7,105c0.4-4.6,0.7-9.2,0.7-14C141.7,479.2,125.9,443.4,100.4,417.1L100.4,417.1z M-114.6,418.7
				c-24.7,26.2-39.7,61.3-39.7,100c0,4.7,0.2,9.4,0.7,14c4-42.1,25.9-79,58.1-103.1C-101.7,425.7-108.1,422.1-114.6,418.7
				L-114.6,418.7z"/>
			
				<radialGradient id="SVGID_00000059302882864812330410000009470890975234386077_" cx="-1710.3776" cy="2332.502" r="154.05" gradientTransform="matrix(-0.6991 7.845000e-03 7.258400e-03 0.1942 -1221.6982 6.143)" gradientUnits="userSpaceOnUse">
				<stop  offset="0" style="stop-color:#E4E2E2"/>
				<stop  offset="1" style="stop-color:#DDD9DC;stop-opacity:0.1635"/>
			</radialGradient>
			
				<path style="opacity:0.4246;fill:url(#SVGID_00000059302882864812330410000009470890975234386077_);enable-background:new    ;" d="
				M-9.1,443.5c-22.6,0-40.9,10-40.9,22.4c0,0.7,0.1,1.4,0.2,2.1c2-11.4,19.4-20.3,40.7-20.3c21.3,0,38.8,8.9,40.7,20.3
				c0.1-0.7,0.2-1.4,0.2-2.1C31.8,453.5,13.5,443.5-9.1,443.5L-9.1,443.5z"/>
		</g>
		
			<radialGradient id="SVGID_00000077322866166115046970000010065929228866148511_" cx="-1215.1554" cy="1778.1501" r="154.05" gradientTransform="matrix(-0.8026 1.199000e-02 8.333800e-03 0.2968 -620.4184 -179.1108)" gradientUnits="userSpaceOnUse">
			<stop  offset="0" style="stop-color:#E4E2E2"/>
			<stop  offset="1" style="stop-color:#DDD9DC;stop-opacity:0.1635"/>
		</radialGradient>
		
			<path style="opacity:0.5297;fill:url(#SVGID_00000077322866166115046970000010065929228866148511_);enable-background:new    ;" d="
			M369.7,330.7c-7.9,0-11.6,0.4-18.1,2.9c1.4,2.9,1.6,3,3.3,5.3c4.7-1.1,9.7-1.8,14.9-1.8c4.5,0,8.9,0.5,13,1.3
			c1.2-1.6,1.7-3,3.1-5.6C379.6,330.7,377.1,330.7,369.7,330.7L369.7,330.7z M403.6,341.3c-2.1,1.6-2.5,2.1-3.8,4
			c10.7,5.6,15.4,12.9,16.8,23c0.1-1.1,0.2-2.2,0.2-3.3C416.7,355.8,411.7,347.4,403.6,341.3L403.6,341.3z M335.4,341.6
			c-7.8,6.1-12.6,14.3-12.6,23.4c0,1.1,0.1,2.2,0.2,3.3c1.3-9.8,6.5-15.7,16.7-21.3C337.7,344.2,337.1,343.4,335.4,341.6
			L335.4,341.6z"/>
		
			<radialGradient id="SVGID_00000176734280966689465740000001208818868838394268_" cx="-1678.9106" cy="2560.3586" r="154.05" gradientTransform="matrix(-0.5097 6.155600e-03 5.292200e-03 0.1523 -499.554 -27.033)" gradientUnits="userSpaceOnUse">
			<stop  offset="0" style="stop-color:#E4E2E2"/>
			<stop  offset="1" style="stop-color:#DDD9DC;stop-opacity:0.1635"/>
		</radialGradient>
		
			<path style="opacity:0.5297;fill:url(#SVGID_00000176734280966689465740000001208818868838394268_);enable-background:new    ;" d="
			M369.7,351c-5,0-7.4,0.2-11.5,1.5c0.9,1.5,1,1.6,2.1,2.7c3-0.6,6.1-0.9,9.4-0.9c2.9,0,5.6,0.2,8.3,0.7c0.7-0.8,1.1-1.5,2-2.9
			C376,351,374.4,351,369.7,351L369.7,351z M391.2,356.4c-1.3,0.8-1.6,1.1-2.4,2c6.8,2.9,9.8,6.6,10.6,11.8c0.1-0.6,0.1-1.1,0.1-1.7
			C399.6,363.9,396.4,359.6,391.2,356.4L391.2,356.4z M347.9,356.6c-5,3.1-8,7.4-8,12c0,0.6,0,1.1,0.1,1.7c0.8-5,4.1-8,10.6-10.9
			C349.4,357.9,349,357.5,347.9,356.6L347.9,356.6z"/>
		<g class="st12">
			<path class="st13" d="M370.9,264.2c18.3,23,4.6,64.3-30.6,92.3s-78.6,32.1-96.9,9.1s-4.6-64.3,30.6-92.3S352.6,241.2,370.9,264.2
				L370.9,264.2z"/>
		</g>
	</g>
</g>
</svg>
